<svg width="16" height="16" viewBox="0 0 16 16" fill="none" xmlns="http://www.w3.org/2000/svg">
<g clip-path="url(#clip0_92_13850)">
<path d="M3.33333 6.66675C2.6 6.66675 2 7.26675 2 8.00008C2 8.73341 2.6 9.33341 3.33333 9.33341C4.06667 9.33341 4.66667 8.73341 4.66667 8.00008C4.66667 7.26675 4.06667 6.66675 3.33333 6.66675ZM12.6667 6.66675C11.9333 6.66675 11.3333 7.26675 11.3333 8.00008C11.3333 8.73341 11.9333 9.33341 12.6667 9.33341C13.4 9.33341 14 8.73341 14 8.00008C14 7.26675 13.4 6.66675 12.6667 6.66675ZM8 6.66675C7.26667 6.66675 6.66667 7.26675 6.66667 8.00008C6.66667 8.73341 7.26667 9.33341 8 9.33341C8.73333 9.33341 9.33333 8.73341 9.33333 8.00008C9.33333 7.26675 8.73333 6.66675 8 6.66675Z" fill="#14191D"/>
</g>
<defs>
<clipPath id="clip0_92_13850">
<rect width="16" height="16" fill="white"/>
</clipPath>
</defs>
</svg>
