<svg width="16" height="16" viewBox="0 0 16 16" fill="none" xmlns="http://www.w3.org/2000/svg">
<g clip-path="url(#clip0_143_1664)">
<path fill-rule="evenodd" clip-rule="evenodd" d="M9.28571 9.28576C8.23809 10.3667 8.16667 11.7143 8.07143 14.6667C10.8238 14.6667 12.7238 14.6572 13.7048 13.7048C14.6571 12.7239 14.6667 10.7334 14.6667 8.07147C11.7143 8.16671 10.3667 8.23814 9.28571 9.28576ZM7.92857 14.6667C5.17619 14.6667 3.27619 14.6572 2.29524 13.7048C1.34286 12.7239 1.33333 10.7334 1.33333 8.07147C4.28571 8.16671 5.63333 8.23814 6.71428 9.28576C7.7619 10.3667 7.83333 11.7143 7.92857 14.6667ZM6.71428 6.71433C5.63333 7.76195 4.28571 7.83337 1.33333 7.92861C1.33333 5.26671 1.34286 3.27623 2.29524 2.29528C3.27619 1.3429 5.18095 1.33337 7.92857 1.33337C7.83333 4.28575 7.7619 5.63337 6.71428 6.71433ZM8.07143 1.33337C8.1619 4.28575 8.23809 5.63337 9.28571 6.71433C10.3667 7.76195 11.7143 7.83337 14.6667 7.92861C14.6667 5.26671 14.6571 3.27623 13.7048 2.29528C12.7238 1.3429 10.8238 1.33337 8.07143 1.33337Z" fill="#9BA1AA"/>
</g>
<defs>
<clipPath id="clip0_143_1664">
<rect width="16" height="16" fill="white"/>
</clipPath>
</defs>
</svg>
