<?xml version="1.0" encoding="utf-8"?><svg xmlns="http://www.w3.org/2000/svg" xmlns:xlink="http://www.w3.org/1999/xlink"><symbol fill="none" viewBox="0 0 180 13" id="basmanov" xmlns="http://www.w3.org/2000/svg"><path d="M9.54 9.203c0 1.976-1.435 3.106-4.286 3.106H.002V.683h4.927c2.544 0 4.006 1.094 4.006 2.987 0 1.333-.704 2.206-1.741 2.638 1.461.34 2.346 1.314 2.346 2.895zM1.21 1.694v4.219h3.636c1.823 0 2.888-.717 2.888-2.105S6.679 1.703 4.847 1.703H1.211v-.009zm7.12 7.408c0-1.508-1.092-2.178-3.096-2.178H1.211v4.365h4.024c2.004.01 3.095-.652 3.095-2.187zm17.822 1.792l.47-.947c.812.818 2.264 1.416 3.762 1.416 2.139 0 3.068-.91 3.068-2.059 0-3.19-7.029-1.232-7.029-5.533 0-1.71 1.308-3.189 4.205-3.189 1.29 0 2.626.386 3.537 1.03l-.406.983c-.974-.644-2.12-.965-3.131-.965-2.084 0-3.014.946-3.014 2.104 0 3.19 7.03 1.26 7.03 5.496 0 1.71-1.336 3.171-4.26 3.171-1.705.01-3.384-.606-4.232-1.507zM50.758.683V12.31h-1.155v-9.3l-4.485 7.82h-.568l-4.485-7.775V12.3H38.91V.683h.993l4.953 8.62 4.91-8.62h.992zm28.205 0V12.31h-.992l-7.336-9.43v9.43h-1.21V.683h.993l7.354 9.43V.683h1.191zM83.305 6.5c0-3.39 2.544-5.909 6-5.909 3.42 0 5.983 2.51 5.983 5.91 0 3.4-2.563 5.91-5.983 5.91-3.456 0-6-2.528-6-5.91zm10.783 0c0-2.775-2.04-4.815-4.774-4.815-2.752 0-4.81 2.04-4.81 4.816 0 2.775 2.058 4.816 4.81 4.816 2.734 0 4.774-2.05 4.774-4.816zm14.69-5.817l-5.053 11.626h-1.191L97.481.683h1.308l4.367 10.091L107.56.684h1.218zm-90.27 0h-1.191L12.102 12.31h1.254l1.371-3.106.434-.993 2.743-6.25 2.734 6.25.442.993 1.371 3.106h1.273L18.508.683zm42.184 0H59.5L54.285 12.31h1.254l1.372-3.106.433-.993 2.743-6.25 2.743 6.25.433.993 1.372 3.106h1.272L60.692.683zm58.48-.037h1.886c1.48 0 2.481.975 2.481 2.362 0 1.388-1.001 2.362-2.481 2.362h-1.886V.646zm1.868 4.293c1.236 0 2.03-.8 2.03-1.93 0-1.131-.794-1.93-2.03-1.93h-1.372v3.86h1.372zm4.259-4.293h.487V5.37h-.487V.646zm5.929 2.363h.47V4.81c-.434.395-1.056.597-1.706.597-1.407 0-2.445-1.02-2.445-2.398 0-1.379 1.029-2.4 2.454-2.4.704 0 1.309.23 1.724.681l-.307.322c-.388-.396-.857-.552-1.399-.552-1.146 0-1.985.827-1.985 1.958 0 1.121.839 1.957 1.985 1.957.442 0 .857-.1 1.209-.367v-1.6zm2.506-2.363h.488V5.37h-.488V.646zm3.565.432h-1.633V.646h3.745v.432h-1.634V5.37h-.487V1.078h.009zm6.236 3.033h-2.58l-.56 1.26h-.514l2.12-4.725h.488l2.12 4.724h-.514l-.56-1.259zm-.18-.404l-1.11-2.537-1.11 2.537h2.22zm2.68-3.061h.487V4.94h2.599v.431h-3.086V.646zm10.213 2.363h.469V4.81c-.433.395-1.056.597-1.705.597-1.408 0-2.446-1.02-2.446-2.398 0-1.379 1.029-2.4 2.455-2.4.704 0 1.308.23 1.723.681l-.307.322c-.388-.396-.857-.552-1.398-.552-1.146 0-1.985.827-1.985 1.958 0 1.121.839 1.957 1.985 1.957.442 0 .857-.1 1.209-.367v-1.6zm5.686 2.361l-1.056-1.516c-.117.01-.235.018-.37.018h-1.245V5.37h-.488V.646h1.733c1.182 0 1.895.607 1.895 1.618 0 .744-.388 1.26-1.056 1.48l1.128 1.617h-.541v.01zm-.028-3.106c0-.754-.487-1.186-1.416-1.186h-1.236V3.45h1.236c.92 0 1.416-.442 1.416-1.186zm1.895.745c0-1.379 1.028-2.4 2.436-2.4 1.39 0 2.427 1.021 2.427 2.4 0 1.378-1.037 2.398-2.427 2.398-1.408 0-2.436-1.02-2.436-2.398zm4.376 0c0-1.13-.83-1.958-1.94-1.958-1.119 0-1.958.827-1.958 1.958 0 1.13.83 1.957 1.958 1.957 1.11 0 1.94-.827 1.94-1.957zm2.212.349V.646h.487V3.33c0 1.121.514 1.636 1.417 1.636.911 0 1.425-.515 1.425-1.636V.646h.479V3.35c0 1.36-.713 2.058-1.904 2.058-1.191 0-1.904-.698-1.904-2.05zm9.563-1.094c0 1.002-.713 1.608-1.895 1.608h-1.246v1.49h-.487V.645h1.733c1.182 0 1.895.607 1.895 1.618zm-.488 0c0-.754-.487-1.186-1.416-1.186h-1.237V3.44h1.237c.929 0 1.416-.432 1.416-1.176z" fill="currentColor"/></symbol></svg>