<svg width="110" height="36" fill="none" xmlns="http://www.w3.org/2000/svg"><g clip-path="url(#clip0_68_3824)" fill="#333F48"><path d="M52.22 29.127c-.601.42-1.512.705-2.52.705-2.338 0-4.053-1.42-4.053-3.81 0-2.231 1.694-3.789 4.064-3.789 1.136 0 2.047.358 2.508.642v1.905c-.525-.768-1.372-1.2-2.444-1.2-1.458 0-2.466.99-2.466 2.4 0 1.494 1.04 2.505 2.54 2.505 1.126 0 1.91-.463 2.37-1.032v1.674zm5.274-3.904c1.79 0 2.776.768 2.776 2.178s-1.083 2.316-2.98 2.316h-3.377V22.35h6.454l-1.694 1.22h-3.14v1.653h1.961zm-.279 3.262c.997 0 1.511-.326 1.511-1.02 0-.695-.482-1.022-1.511-1.022h-1.683v2.042h1.683zm6.175-4.915v1.8h3.464v1.232H63.39v1.883h4.063v1.232h-5.682V22.35h5.682l-1.705 1.22H63.39zm8.695-1.22c2.08 0 3.206 1.01 3.206 2.63 0 1.621-1.233 2.653-3.367 2.653h-1.308v2.084h-1.619V22.35h3.088zm-.032 4.051c1.04 0 1.608-.505 1.608-1.41 0-.905-.568-1.42-1.608-1.42h-1.437v2.83h1.437zm13.717 2.726c-.6.42-1.51.705-2.519.705-2.337 0-4.052-1.42-4.052-3.81 0-2.231 1.694-3.789 4.063-3.789 1.137 0 2.048.358 2.509.642v1.905c-.525-.768-1.372-1.2-2.445-1.2-1.458 0-2.465.99-2.465 2.4 0 1.494 1.04 2.505 2.54 2.505 1.126 0 1.909-.463 2.37-1.032v1.674zm3.335-1.547l3.73-5.23h1.63v7.366H92.89v-5.314l-3.752 5.314H87.53V22.35h1.576v5.23zm12.811-4h-2.401v6.137h-1.62V23.58h-2.337v-1.23h6.358v1.23zm2.723 4l3.731-5.23H110v7.366h-1.576v-5.314l-3.752 5.314h-1.608V22.35h1.576v5.23h-.001zM60.267 10.591c.709-.992 1.77-2.935 1.282-3.649-.589-.858-3.174.8-3.999 1.292-7.614 4.557-9.986 6.942-17.213 11.739-2.665 1.769-9.036 5.47-11.88 6.048-4.77.97-7.387-2.284-4.715-5.843 1.852-2.467 2.778-4.072-4.022-5.64-3.849-.886-13.245-2.78-17.32-5.358-3.238-2.049-3.204-5.61.127-7.43C6.007-.15 11.877-.19 15.88.189 30.142 1.53 45.284 8.878 47.683 10.24c8.693 4.933 8.966 5.408 12.584.35v.001zm-13.67 1.158C41.126 9.43 26.9 3.952 15.753 3.135c-4.857-.356-8.576-.6-11.305.698-2.635 1.253-1.71 3.058.612 4.632 2.245 1.522 11.098 4.059 14.915 5.026 5.414 1.372 8.202 2.416 5.255 7.449-1.057 1.804-.435 3.585 2.63 2.844 3.192-.77 9.696-4.487 12.318-6.14 7.006-4.412 15.544-9.167 17.012-10.023 4.281-2.498 5.517-2.007 5.924-1.51.763.933-.595 3.463-1.43 4.864-4.096 6.872-8.853 3.42-15.089.774z"/><path d="M45.647 35.965v-2.483h1.048c.499 0 .806.18.806.603 0 .301-.134.5-.405.585.336.042.48.248.48.571 0 .514-.371.724-.993.724h-.936zm.965-1.387c.31 0 .563-.153.563-.433 0-.252-.17-.38-.552-.38h-.65v.813h.639zm.018 1.102c.397 0 .617-.13.617-.435s-.252-.412-.606-.412h-.669v.848h.658zm2.807-.566v.85h-.325v-2.482h.82c.709 0 1.07.248 1.07.805s-.38.827-1.07.827h-.494zm0-1.348v1.064h.485c.48 0 .74-.149.74-.564 0-.372-.23-.5-.751-.5h-.474zm2.97 1.702l-1.135-1.986h.383l.929 1.606.766-1.606h.34l-.976 2.018c-.191.394-.354.493-.585.493a.567.567 0 01-.231-.046v-.355c.043.057.119.1.209.1.098 0 .217-.05.3-.224zm1.698-1.986h1.73v.284H54.43v.567h.495c.708 0 1.069.248 1.069.806 0 .557-.38.826-1.07.826h-.82v-2.483zm.325 1.135v1.064h.484c.48 0 .74-.149.74-.564 0-.372-.23-.5-.75-.5h-.474zm3.837-.851h-1.135l-.01.241c-.102 1.805-.423 1.986-.76 1.986a.424.424 0 01-.151-.021v-.344a.26.26 0 00.097.017c.177 0 .42-.131.495-1.649l.025-.514h1.763v2.483h-.325v-2.2.001zm2.63 1.064h-1.258v.85h1.431v.284h-1.756v-2.483h1.716v.284h-1.39v.78h1.257v.284zm-1.04-1.915c.118 0 .198.074.198.184s-.08.188-.199.188c-.119 0-.202-.075-.202-.188s.08-.184.202-.184zm.75 0c.12 0 .2.074.2.184s-.08.188-.2.188c-.119 0-.201-.075-.201-.188s.08-.184.202-.184zm1.041 3.05v-2.483h1.048c.498 0 .806.18.806.603 0 .301-.134.5-.405.585.336.042.48.248.48.571 0 .514-.372.724-.993.724h-.936zm.965-1.387c.31 0 .563-.153.563-.433 0-.252-.17-.38-.553-.38h-.65v.813h.64zm.018 1.102c.397 0 .617-.13.617-.435s-.252-.412-.606-.412h-.669v.848h.658zm2.684-2.233c.813.003 1.323.493 1.323 1.28 0 .734-.499 1.273-1.323 1.273-.816-.004-1.322-.49-1.322-1.28 0-.734.498-1.273 1.322-1.273zm.004 2.27c.603 0 .979-.398.979-.994 0-.56-.343-.989-.986-.993-.607.004-.98.401-.98.993 0 .56.344.99.987.993zm1.781-.947h.968v.297H67.1v-.297zm3.76 1.195h-.353l-.282-.664h-1.239l-.27.663h-.34l1.044-2.482h.386l1.055 2.483zm-.754-.947l-.506-1.206-.495 1.206h1zm1.463.096v.85h-.325v-2.482h.82c.708 0 1.07.248 1.07.805s-.38.827-1.07.827h-.495zm0-1.348v1.064h.484c.48 0 .74-.149.74-.564 0-.372-.23-.5-.75-.5h-.474zm2.695.936l-.903-1.22h.383l.748 1.008.791-1.008h.369l-.954 1.195.986 1.288h-.383l-.824-1.068-.795 1.068h-.368l.95-1.263zm4.032 1.263h-.354l-.282-.664h-1.24l-.27.663h-.34l1.044-2.482h.387l1.055 2.483zm-.756-.947l-.505-1.206-.495 1.206h1zm3.003-.188h-1.539v1.135h-.325v-2.483h.325v1.064h1.539v-1.064h.325v2.483h-.325v-1.136zm2.731-1.064h-1.358v2.199h-.325v-2.483h1.683v.284zm2.012 1.064H84.03v.85h1.43v.284h-1.755v-2.483h1.716v.284h-1.39v.78h1.256v.284zm2.5-1.064h-1.134l-.01.241c-.102 1.805-.424 1.986-.76 1.986a.424.424 0 01-.152-.021v-.344a.26.26 0 00.098.017c.177 0 .42-.131.495-1.649l.025-.514h1.763v2.483h-.325v-2.2.001zm1.374.567h.465c.708 0 1.07.248 1.07.806 0 .557-.38.826-1.07.826h-.791v-2.483h.325v.851zm0 .284v1.064h.455c.48 0 .74-.149.74-.564 0-.372-.23-.5-.751-.5h-.445zm4.118 1.06c-.127.149-.467.323-.914.323-.81-.004-1.315-.493-1.315-1.28 0-.734.498-1.273 1.322-1.273.416 0 .719.142.838.252v.5a1.015 1.015 0 00-.838-.469c-.607 0-.983.397-.983.993 0 .553.333.979.961.993.463 0 .788-.238.929-.5v.461zm.831.288h-.325v-2.483h.325v1.1h.408l.983-1.1h.412l-1.084 1.198 1.225 1.284h-.427l-1.09-1.135h-.427v1.135zm3.284-2.518c.813.003 1.322.493 1.322 1.28 0 .734-.499 1.273-1.322 1.273-.817-.004-1.323-.49-1.323-1.28 0-.734.499-1.273 1.323-1.273zm.003 2.27c.603 0 .98-.398.98-.994 0-.56-.344-.989-.987-.993-.607.004-.979.401-.979.993 0 .56.343.99.986.993zm4.209-1.757l-.936 1.473h-.134l-.957-1.454v1.986h-.325v-2.483h.397l.965 1.507.957-1.507h.358v2.483h-.325V33.96z" opacity=".65"/></g><defs><clipPath id="clip0_68_3824"><path fill="#fff" d="M0 0h110v36H0z"/></clipPath></defs></svg>