<svg width="3508" height="1148" viewBox="0 0 3508 1148" fill="none" xmlns="http://www.w3.org/2000/svg">
<g clip-path="url(#clip0_247_9880)">
<path d="M1665.21 928.82C1646.06 942.243 1617.01 951.301 1584.87 951.301C1510.34 951.301 1455.64 906 1455.64 829.815C1455.64 758.661 1509.66 708.995 1585.22 708.995C1621.46 708.995 1650.51 720.405 1665.21 729.463V790.212C1648.46 765.719 1621.45 751.956 1587.27 751.956C1540.77 751.956 1508.63 783.495 1508.63 828.469C1508.63 876.122 1541.8 908.34 1589.65 908.34C1625.55 908.34 1650.51 893.571 1665.21 875.455V928.82Z" fill="#333F48"/>
<path d="M1833.42 804.321C1890.51 804.321 1921.96 828.827 1921.96 873.789C1921.96 918.75 1887.42 947.622 1826.92 947.622H1719.23V712.7H1925.05L1871.03 751.636H1770.86V804.321H1833.43H1833.42ZM1824.52 908.359C1856.32 908.359 1872.72 897.955 1872.72 875.802C1872.72 853.648 1857.34 843.244 1824.52 843.244H1770.85V908.346H1824.52V908.359Z" fill="#333F48"/>
<path d="M2021.46 751.636V809.026H2131.89V848.289H2021.46V908.359H2151.04V947.622H1969.84V712.7H2151.04L2096.67 751.636H2021.46Z" fill="#333F48"/>
<path d="M2298.71 712.7C2365.03 712.7 2400.94 744.918 2400.94 796.597C2400.94 848.276 2361.62 881.173 2293.58 881.173H2251.87V947.622H2200.25V712.7H2298.71ZM2297.68 841.911C2330.85 841.911 2348.97 825.796 2348.97 796.937C2348.97 768.078 2330.85 751.636 2297.68 751.636H2251.87V841.911H2297.68Z" fill="#333F48"/>
<path d="M2735.13 928.82C2715.98 942.243 2686.93 951.301 2654.79 951.301C2580.27 951.301 2525.56 906 2525.56 829.815C2525.56 758.661 2579.58 708.995 2655.14 708.995C2691.38 708.995 2720.43 720.405 2735.14 729.463V790.212C2718.39 765.719 2691.38 751.956 2657.19 751.956C2610.69 751.956 2578.56 783.495 2578.56 828.469C2578.56 876.122 2611.72 908.34 2659.58 908.34C2695.48 908.34 2720.43 893.571 2735.14 875.455V928.82H2735.13Z" fill="#333F48"/>
<path d="M2841.45 879.488L2960.43 712.7H3012.39V947.622H2962.14V778.142L2842.48 947.622H2791.2V712.7H2841.46V879.488H2841.45Z" fill="#333F48"/>
<path d="M3249.99 751.963H3173.41V947.622H3121.78V751.963H3047.25V712.7H3249.99V751.963Z" fill="#333F48"/>
<path d="M3336.83 879.488L3455.81 712.7H3507.78V947.622H3457.53V778.142L3337.87 947.622H3286.59V712.7H3336.84V879.488H3336.83Z" fill="#333F48"/>
<path d="M1921.84 337.739C1944.46 306.113 1978.31 244.131 1962.72 221.386C1943.96 194.024 1861.5 246.861 1835.22 262.586C1592.4 407.899 1516.78 483.946 1286.31 636.908C1201.33 693.317 998.17 811.344 907.474 829.774C755.341 860.696 671.886 756.96 757.11 643.449C816.164 564.798 845.703 513.61 628.852 463.629C506.117 435.349 206.464 374.951 76.5406 292.74C-26.7142 227.399 -25.6505 113.851 80.5903 55.8313C191.547 -4.75467 378.731 -6.03784 506.386 5.98877C961.184 48.8367 1444.05 283.117 1520.54 326.531C1797.76 483.858 1806.48 498.992 1921.84 337.727V337.739ZM1485.9 374.675C1311.51 300.666 857.827 126.016 502.375 99.9749C347.487 88.6277 228.904 80.8531 141.887 122.229C57.8555 162.184 87.3697 219.738 161.392 269.933C232.98 318.479 515.293 399.37 637.015 430.216C809.666 473.957 898.555 507.244 804.578 667.742C770.886 725.296 790.712 782.07 888.443 758.457C990.237 733.863 1197.64 615.345 1281.28 562.672C1504.68 421.951 1776.96 270.335 1823.77 243.011C1960.28 163.354 1999.7 179.016 2012.67 194.879C2036.98 224.631 1993.69 305.308 1967.05 349.993C1836.46 569.126 1684.75 459.062 1485.9 374.675Z" fill="#333F48"/>
</g>
<defs>
<clipPath id="clip0_247_9880">
<rect width="3507.78" height="1148" fill="white"/>
</clipPath>
</defs>
</svg>
