<svg width="16" height="16" viewBox="0 0 16 16" fill="none" xmlns="http://www.w3.org/2000/svg">
<g clip-path="url(#clip0_143_1652)">
<path d="M1.67288 7.45844C5.61042 5.67031 8.23621 4.49003 9.55024 3.9176C13.302 2.29235 14.0819 2.00908 14.59 2.00023C14.7765 1.99593 14.9596 2.05292 15.1133 2.16311C15.2208 2.26049 15.2893 2.39631 15.3053 2.54375C15.3326 2.72702 15.34 2.9129 15.3274 3.09789C15.1235 5.32331 14.2451 10.7249 13.7982 13.2176C13.6096 14.2799 13.2357 14.634 12.8755 14.6605C12.0905 14.7349 11.4958 14.1205 10.7363 13.5983C9.54685 12.7856 8.87567 12.2811 7.72193 11.4879C6.38808 10.5726 7.25296 10.0716 8.01249 9.24657C8.21129 9.03057 11.6674 5.75529 11.7354 5.45786C11.7444 5.41403 11.7433 5.36861 11.7324 5.32526C11.7215 5.28191 11.701 5.24183 11.6725 5.20823C11.6312 5.18085 11.5843 5.16402 11.5356 5.1591C11.4869 5.15417 11.4377 5.1613 11.3921 5.17991C11.2732 5.20823 9.37409 6.51599 5.69482 9.10316C5.15562 9.48911 4.66739 9.67678 4.23013 9.66615C3.74757 9.65553 2.81982 9.38289 2.12995 9.14919C1.28037 8.86239 0.610893 8.71189 0.670364 8.22503C0.698684 7.97953 1.03285 7.724 1.67288 7.45844Z" fill="#9BA1AA"/>
</g>
<defs>
<clipPath id="clip0_143_1652">
<rect width="16" height="16" fill="white"/>
</clipPath>
</defs>
</svg>
