<svg width="16" height="16" viewBox="0 0 16 16" fill="none" xmlns="http://www.w3.org/2000/svg">
<path fill-rule="evenodd" clip-rule="evenodd" d="M2.2706 2.27063C1.33334 3.20789 1.33334 4.71637 1.33334 7.73337V8.26671C1.33334 11.2837 1.33334 12.7922 2.2706 13.7295C3.20786 14.6667 4.71634 14.6667 7.73334 14.6667H8.26668C11.2837 14.6667 12.7921 14.6667 13.7294 13.7295C14.6667 12.7922 14.6667 11.2837 14.6667 8.26671V7.73337C14.6667 4.71637 14.6667 3.20789 13.7294 2.27063C12.7921 1.33337 11.2837 1.33337 8.26668 1.33337H7.73334C4.71634 1.33337 3.20786 1.33337 2.2706 2.27063ZM3.58338 5.38896C3.6556 8.85562 5.38893 10.939 8.42782 10.939H8.60007V8.95562C9.71673 9.06674 10.5611 9.8834 10.9 10.939H12.4778C12.0445 9.36118 10.9055 8.48896 10.1944 8.15562C10.9055 7.74451 11.9055 6.74451 12.1444 5.38896H10.7111C10.4 6.48896 9.47784 7.48896 8.60007 7.5834V5.38896H7.16668V9.2334C6.27779 9.01118 5.15559 7.9334 5.10559 5.38896H3.58338Z" fill="#9BA1AA"/>
</svg>
