<svg width="25" height="24" fill="none" xmlns="http://www.w3.org/2000/svg"><g clip-path="url(#clip0_68_4520)"><path d="M21.179 16.096l-2.584-1.492 1.6-.424a.424.424 0 00.288-.516l-.196-.732a.421.421 0 00-.516-.3l-3.14.84L14.083 12l2.552-1.472 3.14.84a.42.42 0 00.516-.3l.192-.732a.424.424 0 00-.3-.516l-1.6-.424 2.584-1.492a.424.424 0 00.152-.576l-.376-.656a.424.424 0 00-.576-.156L17.795 8l.428-1.6a.424.424 0 00-.3-.516l-.732-.196a.42.42 0 00-.516.3l-.84 3.136-2.552 1.492V7.668l2.296-2.3a.4.4 0 000-.592l-.536-.536a.4.4 0 00-.592 0l-1.168 1.164V2.42a.4.4 0 00-.4-.42h-.76a.4.4 0 00-.4.42v2.984L10.515 4.24a.4.4 0 00-.592 0l-.536.536a.4.4 0 000 .592l2.296 2.3v2.948L9.13 9.14 8.29 6a.42.42 0 00-.516-.3l-.732.196a.424.424 0 00-.3.504L7.17 8 4.587 6.508a.424.424 0 00-.577.156l-.376.656a.424.424 0 00.153.576L6.37 9.388l-1.6.424a.424.424 0 00-.288.524l.196.732a.421.421 0 00.516.3l3.14-.84L10.883 12 8.33 13.472l-3.14-.84a.42.42 0 00-.516.3l-.192.732a.424.424 0 00.3.516l1.6.424-2.585 1.492a.424.424 0 00-.151.576l.376.656c.117.201.373.27.576.156L7.17 16l-.428 1.6a.424.424 0 00.3.516l.731.196A.42.42 0 008.291 18l.84-3.136 2.552-1.48v2.948l-2.296 2.3a.4.4 0 000 .592l.536.536a.4.4 0 00.592 0l1.168-1.164V21.6a.4.4 0 00.4.4h.8a.4.4 0 00.4-.4v-3.004l1.168 1.164a.4.4 0 00.592 0l.536-.536a.4.4 0 000-.592l-2.296-2.3v-2.948l2.552 1.476.84 3.14a.42.42 0 00.516.3l.732-.196a.424.424 0 00.3-.504l-.428-1.6 2.584 1.492a.424.424 0 00.576-.156l.376-.656a.423.423 0 00-.152-.584z" fill="#fff"/></g><defs><clipPath id="clip0_68_4520"><path fill="#fff" transform="translate(.5)" d="M0 0h24v24H0z"/></clipPath></defs></svg>