<svg width="25" height="24" viewBox="0 0 25 24" fill="none" xmlns="http://www.w3.org/2000/svg">
<path d="M11.4785 4.7998L14.2801 5.64334C15.0408 5.87241 15.639 6.46312 15.8775 7.22104L18.4992 15.5528" stroke="white" stroke-width="1.8"/>
<path d="M16.6475 9.55273H8.29124L6.5 15.5527" stroke="white" stroke-width="1.8"/>
<path d="M6.50039 19.1531C8.48861 19.1531 10.1004 17.5413 10.1004 15.5531C10.1004 13.5649 8.48861 11.9531 6.50039 11.9531C4.51216 11.9531 2.90039 13.5649 2.90039 15.5531C2.90039 17.5413 4.51216 19.1531 6.50039 19.1531Z" stroke="white" stroke-width="1.8"/>
<path d="M18.5004 19.1531C20.4886 19.1531 22.1004 17.5413 22.1004 15.5531C22.1004 13.5649 20.4886 11.9531 18.5004 11.9531C16.5122 11.9531 14.9004 13.5649 14.9004 15.5531C14.9004 17.5413 16.5122 19.1531 18.5004 19.1531Z" stroke="white" stroke-width="1.8"/>
<path d="M5.86914 7.75H7.12526C7.78802 7.75 8.32526 8.28724 8.32526 8.95C8.32526 8.9734 8.3246 8.99674 8.32322 9.02008L8.29202 9.55312" stroke="white" stroke-width="1.8"/>
</svg>
