<svg width="25" height="24" fill="none" xmlns="http://www.w3.org/2000/svg"><g clip-path="url(#clip0_68_4535)"><path d="M20.061 12.098l1.531 2.652a3.5 3.5 0 01-3.03 5.25H16.5v2l-5-3.5 5-3.5v2h2.062a.498.498 0 00.471-.668l-.038-.082-1.53-2.652 2.597-1.5zM8.236 9.384l.53 6.08-1.73-1-1.032 1.786a.498.498 0 00.343.742l.09.008H9.5v3H6.437a3.5 3.5 0 01-3.03-5.25l1.03-1.786-1.732-1 5.53-2.58h.001zm6.013-6.415c.532.307.974.749 1.281 1.28l1.03 1.787 1.733-1-.53 6.08-5.532-2.58 1.732-1-1.03-1.786a.498.498 0 00-.814-.073l-.053.073-1.53 2.652-2.599-1.5 1.53-2.652a3.5 3.5 0 014.782-1.281z" fill="#fff"/></g><defs><clipPath id="clip0_68_4535"><path fill="#fff" transform="translate(.5)" d="M0 0h24v24H0z"/></clipPath></defs></svg>