<svg width="25" height="24" fill="none" xmlns="http://www.w3.org/2000/svg"><g clip-path="url(#clip0_68_4618)"><path fill-rule="evenodd" clip-rule="evenodd" d="M2.5 7.914v8h5.086l5.914 5.914V2L7.586 7.914H2.5zM20.5 3a1 1 0 112 0v18a1 1 0 11-2 0V3zm-5 5a1 1 0 001 1h1a1 1 0 100-2h-1a1 1 0 00-1 1zm1 5a1 1 0 110-2h1a1 1 0 110 2h-1zm-1 3a1 1 0 001 1h1a1 1 0 100-2h-1a1 1 0 00-1 1z" fill="#fff"/></g><defs><clipPath id="clip0_68_4618"><path fill="#fff" transform="translate(.5)" d="M0 0h24v24H0z"/></clipPath></defs></svg>