<svg width="25" height="24" viewBox="0 0 25 24" fill="none" xmlns="http://www.w3.org/2000/svg">
<g clip-path="url(#clip0_68_4590)">
<path d="M11.5009 17.938C9.48357 17.6813 7.63971 16.6661 6.34405 15.0988C5.04838 13.5314 4.39814 11.5295 4.52548 9.49997C4.65282 7.47041 5.54819 5.56549 7.0296 4.17238C8.51102 2.77927 10.4673 2.00252 12.5009 2C14.5369 1.99849 16.4969 2.77334 17.9815 4.16668C19.4661 5.56002 20.3636 7.467 20.4911 9.49904C20.6186 11.5311 19.9665 13.5353 18.6677 15.1033C17.3689 16.6712 15.5211 17.685 13.5009 17.938V21H11.5009V17.938ZM5.50086 22H19.5009V24H5.50086V22Z" fill="white"/>
</g>
<defs>
<clipPath id="clip0_68_4590">
<rect width="24" height="24" fill="white" transform="translate(0.5)"/>
</clipPath>
</defs>
</svg>
