<svg width="25" height="24" fill="none" xmlns="http://www.w3.org/2000/svg"><path fill="#fff" d="M2.5 2h20v2h-20zm15.246 19.244c.095-.126.346-.503.819-.503.535 0 .787.472.976.787.188.315.283.472.44.472.158 0 .252-.157.441-.472.189-.346.44-.787.976-.787.535 0 .787.472.976.787.032.063.094.126.126.22v-6.36h-3.211l-1.543 5.856zM2.5 15.389v6.359c.032-.063.094-.126.126-.189.189-.346.44-.818.976-.818.535 0 .787.472.976.787.189.315.283.472.44.472.158 0 .252-.157.441-.472.19-.347.441-.787.976-.787.472 0 .724.377.819.503L5.71 15.39H2.5zm0-.629h3.242L9.583 5H2.5v9.76zm16.758 0H22.5V5h-7.083l3.84 9.76z"/></svg>