<svg width="25" height="24" fill="none" xmlns="http://www.w3.org/2000/svg"><g clip-path="url(#clip0_68_4562)" fill="#fff"><path d="M19.726 17.38l-.067-.222-.133-.355-.089-.222-.244-.444-.334-.423-.444-.4-.51-.466-.422-.4-.4-.444-.333-.444-.311-.466-.333-.622-.2-.422-.245-.466-.31-.511-.356-.467-.244-.244-.244-.222-.334-.244-.4-.178-.51-.178-.511-.066h-.533l-.511.066-.733.267-.71.488-.467.467-.289.444-.288.51-.378.778-.355.689-.4.533-.489.622-1.443 1.332-.134.111-.333.466-.266.534-.156.666-.088.6-.023.666.067.444.2.622.288.577.311.4.4.4.533.355.622.289.467.111.71.022.689-.155.422-.2.177-.133.4-.223.378-.222.333-.2.355-.155.289-.133.333-.09.355-.021.422.066.311.067.511.244.622.311.51.333.467.267.467.2.444.089.377.022.311-.022.489-.134.622-.288.444-.311.466-.467.334-.444.288-.6.178-.577.067-.489v-.51l-.023-.29-.066-.488zM15.925 2.018c1.317.14 2.224 1.776 2.026 3.654-.2 1.879-1.428 3.289-2.746 3.15-1.317-.14-2.224-1.776-2.025-3.655.198-1.878 1.428-3.288 2.745-3.149zm-4.142 3.141c.198 1.878-.709 3.514-2.026 3.653-1.318.14-2.547-1.27-2.745-3.149-.2-1.878.708-3.514 2.025-3.654 1.318-.139 2.547 1.271 2.745 3.15zm8.967 2.243c1.292.288 2.01 2.006 1.602 3.838-.408 1.832-1.787 3.083-3.08 2.795-1.293-.288-2.01-2.006-1.603-3.838.408-1.832 1.787-3.083 3.08-2.795zM7.297 10.196c.408 1.832-.31 3.55-1.603 3.838-1.293.288-2.672-.963-3.08-2.795-.407-1.832.31-3.55 1.603-3.838 1.293-.288 2.672.963 3.08 2.795z"/></g><defs><clipPath id="clip0_68_4562"><path fill="#fff" transform="translate(.5)" d="M0 0h24v24H0z"/></clipPath></defs></svg>