<svg width="25" height="24" fill="none" xmlns="http://www.w3.org/2000/svg"><g clip-path="url(#clip0_68_4514)"><path d="M8.5 10.341v2.194A3.999 3.999 0 1013.965 18h2.193A6.002 6.002 0 014.5 16a6.003 6.003 0 014-5.659zm4 6.659a3 3 0 01-3-3v-4a3 3 0 116 0v5h1.434a2 2 0 011.626.836l.089.135 2.708 4.515-1.714 1.028L16.933 17H12.5zm0-15a2.5 2.5 0 010 5 2.5 2.5 0 010-5z" fill="#fff"/></g><defs><clipPath id="clip0_68_4514"><path fill="#fff" transform="translate(.5)" d="M0 0h24v24H0z"/></clipPath></defs></svg>