<svg width="25" height="24" viewBox="0 0 25 24" fill="none" xmlns="http://www.w3.org/2000/svg">
<g clip-path="url(#clip0_68_4554)">
<path d="M17.584 15.812C18.5244 14.8184 19.153 13.571 19.3922 12.224C19.6314 10.877 19.4706 9.48941 18.9297 8.2328C18.3888 6.97618 17.4916 5.90559 16.3489 5.15337C15.2062 4.40115 13.8681 4.00026 12.5 4.00026C11.1319 4.00026 9.79384 4.40115 8.65112 5.15337C7.50841 5.90559 6.61117 6.97618 6.0703 8.2328C5.52943 9.48941 5.36863 10.877 5.6078 12.224C5.84696 13.571 6.4756 14.8184 7.416 15.812C7.95567 14.9509 8.70536 14.241 9.59467 13.7491C10.484 13.2572 11.4837 12.9995 12.5 13C13.5163 12.9995 14.516 13.2572 15.4053 13.7491C16.2946 14.241 17.0443 14.9509 17.584 15.812ZM12.5 23.728L6.136 17.364C4.87734 16.1053 4.02019 14.5017 3.67293 12.7559C3.32567 11.01 3.50391 9.20044 4.1851 7.55591C4.86629 5.91139 6.01984 4.50579 7.49988 3.51686C8.97992 2.52793 10.72 2.00009 12.5 2.00009C14.28 2.00009 16.0201 2.52793 17.5001 3.51686C18.9802 4.50579 20.1337 5.91139 20.8149 7.55591C21.4961 9.20044 21.6743 11.01 21.3271 12.7559C20.9798 14.5017 20.1227 16.1053 18.864 17.364L12.5 23.728ZM12.5 12C11.7044 12 10.9413 11.6839 10.3787 11.1213C9.81607 10.5587 9.5 9.79566 9.5 9.00001C9.5 8.20436 9.81607 7.4413 10.3787 6.87869C10.9413 6.31608 11.7044 6.00001 12.5 6.00001C13.2957 6.00001 14.0587 6.31608 14.6213 6.87869C15.1839 7.4413 15.5 8.20436 15.5 9.00001C15.5 9.79566 15.1839 10.5587 14.6213 11.1213C14.0587 11.6839 13.2957 12 12.5 12Z" fill="white"/>
</g>
<defs>
<clipPath id="clip0_68_4554">
<rect width="24" height="24" fill="white" transform="translate(0.5)"/>
</clipPath>
</defs>
</svg>
